<svg width="68" height="95" viewBox="0 0 68 95" fill="none" xmlns="http://www.w3.org/2000/svg">
<g clip-path="url(#clip0_610_19)">
<path d="M57.5 0.499875L10.5 0.499877C4.97715 0.499878 0.5 4.97703 0.5 10.4999L0.500004 84.4999C0.500004 90.0227 4.97716 94.4999 10.5 94.4999L57.5 94.4999C63.0229 94.4999 67.5 90.0227 67.5 84.4999L67.5 10.4999C67.5 4.97703 63.0229 0.499875 57.5 0.499875Z" fill="#351C57"/>
<path d="M33.5 7.49988L60.3468 22.9999L60.3468 53.9999L33.5 69.4999L6.6532 53.9999L6.6532 22.9999L33.5 7.49988Z" fill="black"/>
<path d="M22 23.9999L9.5 23.9999L33.5 65.9999L57.5 23.9999L44.8782 23.9999L33.5 59.4999L22 23.9999Z" fill="#46DDFF"/>
<path d="M31 31.4998L33.567 36.3764L36.134 31.4998L37.134 31.4998L38.134 31.4998L34.4072 37.9727L37.134 43.1528L36.134 43.8907L33.567 39.4321L31 43.8907L30 43.1528L32.7267 37.9727L29 31.4998L30 31.4998L31 31.4998Z" fill="#46DDFF"/>
<path d="M22 23.9999L9.5 23.9999L33.5 65.9999L57.5 23.9999L44.8782 23.9999L33.5 59.4999L22 23.9999Z" stroke="#00B8E2"/>
<path d="M31 31.4998L33.567 36.3764L36.134 31.4998L37.134 31.4998L38.134 31.4998L34.4072 37.9727L37.134 43.1528L36.134 43.8907L33.567 39.4321L31 43.8907L30 43.1528L32.7267 37.9727L29 31.4998L30 31.4998L31 31.4998Z" stroke="#00B8E2"/>
<path d="M19.0037 85.5L16.8317 76.74L18.6917 76.74L19.9037 82.272C19.9437 82.464 19.9917 82.708 20.0477 83.004C20.1117 83.3 20.1597 83.552 20.1917 83.76C20.2237 83.552 20.2637 83.3 20.3117 83.004C20.3597 82.708 20.4037 82.46 20.4437 82.26L21.6197 76.74L23.4317 76.74L21.2837 85.5L19.0037 85.5ZM27.579 85.62C26.995 85.62 26.483 85.512 26.043 85.296C25.611 85.072 25.275 84.764 25.035 84.372C24.803 83.972 24.687 83.508 24.687 82.98L24.687 81.42C24.687 80.892 24.803 80.432 25.035 80.04C25.275 79.64 25.611 79.332 26.043 79.116C26.483 78.892 26.995 78.78 27.579 78.78C28.163 78.78 28.667 78.892 29.091 79.116C29.523 79.332 29.855 79.64 30.087 80.04C30.327 80.432 30.447 80.892 30.447 81.42L30.447 82.62L26.403 82.62L26.403 82.98C26.403 83.396 26.503 83.712 26.703 83.928C26.903 84.136 27.203 84.24 27.603 84.24C27.883 84.24 28.107 84.192 28.275 84.096C28.451 84 28.567 83.868 28.623 83.7L30.387 83.7C30.243 84.276 29.915 84.74 29.403 85.092C28.899 85.444 28.291 85.62 27.579 85.62ZM28.731 81.696L28.731 81.396C28.731 80.988 28.635 80.676 28.443 80.46C28.259 80.244 27.971 80.136 27.579 80.136C27.187 80.136 26.891 80.248 26.691 80.472C26.499 80.696 26.403 81.012 26.403 81.42L26.403 81.6L28.851 81.576L28.731 81.696ZM31.7143 85.5L33.9943 82.08L31.8703 78.9L33.8743 78.9L34.6903 80.22C34.7543 80.324 34.8143 80.44 34.8703 80.568C34.9263 80.696 34.9703 80.8 35.0023 80.88C35.0343 80.8 35.0783 80.696 35.1343 80.568C35.1983 80.44 35.2583 80.324 35.3143 80.22L36.1303 78.9L38.1343 78.9L36.0223 82.08L38.2903 85.5L36.2863 85.5L35.3263 83.94C35.2623 83.828 35.1983 83.712 35.1343 83.592C35.0783 83.464 35.0343 83.36 35.0023 83.28C34.9703 83.36 34.9263 83.464 34.8703 83.592C34.8143 83.712 34.7543 83.828 34.6903 83.94L33.7183 85.5L31.7143 85.5ZM42.4377 85.62C41.8537 85.62 41.3457 85.512 40.9137 85.296C40.4817 85.072 40.1457 84.764 39.9057 84.372C39.6737 83.972 39.5577 83.508 39.5577 82.98L39.5577 81.42C39.5577 80.892 39.6737 80.432 39.9057 80.04C40.1457 79.64 40.4817 79.332 40.9137 79.116C41.3457 78.892 41.8537 78.78 42.4377 78.78C43.0297 78.78 43.5377 78.892 43.9617 79.116C44.3937 79.332 44.7257 79.64 44.9577 80.04C45.1977 80.432 45.3177 80.892 45.3177 81.42L45.3177 82.98C45.3177 83.508 45.1977 83.972 44.9577 84.372C44.7257 84.764 44.3937 85.072 43.9617 85.296C43.5377 85.512 43.0297 85.62 42.4377 85.62ZM42.4377 84.06C42.7897 84.06 43.0577 83.968 43.2417 83.784C43.4257 83.592 43.5177 83.324 43.5177 82.98L43.5177 81.42C43.5177 81.068 43.4257 80.8 43.2417 80.616C43.0577 80.432 42.7897 80.34 42.4377 80.34C42.0937 80.34 41.8257 80.432 41.6337 80.616C41.4497 80.8 41.3577 81.068 41.3577 81.42L41.3577 82.98C41.3577 83.324 41.4497 83.592 41.6337 83.784C41.8257 83.968 42.0937 84.06 42.4377 84.06ZM47.257 85.5L47.257 78.9L48.937 78.9L48.937 80.16L49.393 80.16L48.877 80.928C48.877 80.216 49.041 79.68 49.369 79.32C49.697 78.96 50.177 78.78 50.809 78.78C51.537 78.78 52.101 79 52.501 79.44C52.909 79.88 53.113 80.5 53.113 81.3L53.113 81.84L51.193 81.84L51.193 81.42C51.193 81.06 51.093 80.78 50.893 80.58C50.701 80.38 50.441 80.28 50.113 80.28C49.769 80.28 49.505 80.38 49.321 80.58C49.145 80.78 49.057 81.06 49.057 81.42L49.057 85.5L47.257 85.5Z" fill="#00D0FF"/>
</g>
<defs>
<clipPath id="clip0_610_19">
<rect width="94" height="67" fill="white" transform="translate(0.5 94.5) rotate(-90)"/>
</clipPath>
</defs>
</svg>
